<svg width="195" height="28" viewBox="0 0 195 28" fill="none" xmlns="http://www.w3.org/2000/svg">
<path d="M10.576 27V17.028L11.62 19.908L0.676 1.8H5.68L14.464 16.38H11.656L20.512 1.8H25.12L14.176 19.908L15.256 17.028V27H10.576ZM34.2483 27.252C32.2803 27.252 30.5283 26.832 28.9923 25.992C27.4563 25.128 26.2443 23.952 25.3563 22.464C24.4683 20.976 24.0243 19.284 24.0243 17.388C24.0243 15.468 24.4683 13.776 25.3563 12.312C26.2443 10.824 27.4563 9.66 28.9923 8.82C30.5283 7.98 32.2803 7.56 34.2483 7.56C36.2403 7.56 38.0043 7.98 39.5403 8.82C41.1003 9.66 42.3123 10.812 43.1763 12.276C44.0643 13.74 44.5083 15.444 44.5083 17.388C44.5083 19.284 44.0643 20.976 43.1763 22.464C42.3123 23.952 41.1003 25.128 39.5403 25.992C38.0043 26.832 36.2403 27.252 34.2483 27.252ZM34.2483 23.4C35.3523 23.4 36.3363 23.16 37.2003 22.68C38.0643 22.2 38.7363 21.504 39.2163 20.592C39.7203 19.68 39.9723 18.612 39.9723 17.388C39.9723 16.14 39.7203 15.072 39.2163 14.184C38.7363 13.272 38.0643 12.576 37.2003 12.096C36.3363 11.616 35.3643 11.376 34.2843 11.376C33.1803 11.376 32.1963 11.616 31.3323 12.096C30.4923 12.576 29.8203 13.272 29.3163 14.184C28.8123 15.072 28.5603 16.14 28.5603 17.388C28.5603 18.612 28.8123 19.68 29.3163 20.592C29.8203 21.504 30.4923 22.2 31.3323 22.68C32.1963 23.16 33.1683 23.4 34.2483 23.4ZM56.9474 27.252C55.3154 27.252 53.8754 26.952 52.6274 26.352C51.3794 25.728 50.4074 24.792 49.7114 23.544C49.0154 22.272 48.6674 20.676 48.6674 18.756V7.776H53.1674V18.144C53.1674 19.872 53.5514 21.168 54.3194 22.032C55.1114 22.872 56.2274 23.292 57.6674 23.292C58.7234 23.292 59.6354 23.076 60.4034 22.644C61.1954 22.212 61.8074 21.564 62.2394 20.7C62.6954 19.836 62.9234 18.768 62.9234 17.496V7.776H67.4234V27H63.1394V21.816L63.8954 23.4C63.2474 24.648 62.2994 25.608 61.0514 26.28C59.8034 26.928 58.4354 27.252 56.9474 27.252ZM73.3153 27V7.776H77.5993V13.068L77.0953 11.52C77.6713 10.224 78.5713 9.24 79.7953 8.568C81.0433 7.896 82.5913 7.56 84.4393 7.56V11.844C84.2473 11.796 84.0673 11.772 83.8993 11.772C83.7313 11.748 83.5633 11.736 83.3953 11.736C81.6913 11.736 80.3353 12.24 79.3273 13.248C78.3193 14.232 77.8153 15.708 77.8153 17.676V27H73.3153Z" fill="#4DC591"/>
<path d="M88.8645 27V1.8H100.672C103.696 1.8 106 2.4 107.584 3.6C109.168 4.776 109.96 6.36 109.96 8.352C109.96 9.696 109.648 10.848 109.024 11.808C108.4 12.744 107.56 13.476 106.504 14.004C105.472 14.508 104.344 14.76 103.12 14.76L103.768 13.464C105.184 13.464 106.456 13.728 107.584 14.256C108.712 14.76 109.6 15.504 110.248 16.488C110.92 17.472 111.256 18.696 111.256 20.16C111.256 22.32 110.428 24 108.772 25.2C107.116 26.4 104.656 27 101.392 27H88.8645ZM93.5445 23.328H101.104C102.856 23.328 104.2 23.04 105.136 22.464C106.072 21.888 106.54 20.964 106.54 19.692C106.54 18.444 106.072 17.532 105.136 16.956C104.2 16.356 102.856 16.056 101.104 16.056H93.1845V12.42H100.168C101.8 12.42 103.048 12.132 103.912 11.556C104.8 10.98 105.244 10.116 105.244 8.964C105.244 7.788 104.8 6.912 103.912 6.336C103.048 5.76 101.8 5.472 100.168 5.472H93.5445V23.328ZM115.819 27V7.776H120.103V13.068L119.599 11.52C120.175 10.224 121.075 9.24 122.299 8.568C123.547 7.896 125.095 7.56 126.943 7.56V11.844C126.751 11.796 126.571 11.772 126.403 11.772C126.235 11.748 126.067 11.736 125.899 11.736C124.195 11.736 122.839 12.24 121.831 13.248C120.823 14.232 120.319 15.708 120.319 17.676V27H115.819ZM141.234 27V23.112L140.982 22.284V15.48C140.982 14.16 140.586 13.14 139.794 12.42C139.002 11.676 137.802 11.304 136.194 11.304C135.114 11.304 134.046 11.472 132.99 11.808C131.958 12.144 131.082 12.612 130.362 13.212L128.598 9.936C129.63 9.144 130.854 8.556 132.27 8.172C133.71 7.764 135.198 7.56 136.734 7.56C139.518 7.56 141.666 8.232 143.178 9.576C144.714 10.896 145.482 12.948 145.482 15.732V27H141.234ZM135.186 27.252C133.746 27.252 132.486 27.012 131.406 26.532C130.326 26.028 129.486 25.344 128.886 24.48C128.31 23.592 128.022 22.596 128.022 21.492C128.022 20.412 128.274 19.44 128.778 18.576C129.306 17.712 130.158 17.028 131.334 16.524C132.51 16.02 134.07 15.768 136.014 15.768H141.594V18.756H136.338C134.802 18.756 133.77 19.008 133.242 19.512C132.714 19.992 132.45 20.592 132.45 21.312C132.45 22.128 132.774 22.776 133.422 23.256C134.07 23.736 134.97 23.976 136.122 23.976C137.226 23.976 138.21 23.724 139.074 23.22C139.962 22.716 140.598 21.972 140.982 20.988L141.738 23.688C141.306 24.816 140.526 25.692 139.398 26.316C138.294 26.94 136.89 27.252 135.186 27.252ZM162.165 7.56C163.701 7.56 165.069 7.86 166.269 8.46C167.493 9.06 168.453 9.984 169.149 11.232C169.845 12.456 170.193 14.04 170.193 15.984V27H165.693V16.56C165.693 14.856 165.285 13.584 164.469 12.744C163.677 11.904 162.561 11.484 161.121 11.484C160.065 11.484 159.129 11.7 158.313 12.132C157.497 12.564 156.861 13.212 156.405 14.076C155.973 14.916 155.757 15.984 155.757 17.28V27H151.257V7.776H155.541V12.96L154.785 11.376C155.457 10.152 156.429 9.216 157.701 8.568C158.997 7.896 160.485 7.56 162.165 7.56ZM184.072 27.252C182.224 27.252 180.556 26.844 179.068 26.028C177.604 25.188 176.452 24.036 175.612 22.572C174.772 21.108 174.352 19.38 174.352 17.388C174.352 15.396 174.772 13.668 175.612 12.204C176.452 10.74 177.604 9.6 179.068 8.784C180.556 7.968 182.224 7.56 184.072 7.56C185.68 7.56 187.12 7.92 188.392 8.64C189.664 9.336 190.672 10.404 191.416 11.844C192.16 13.284 192.532 15.132 192.532 17.388C192.532 19.62 192.172 21.468 191.452 22.932C190.732 24.372 189.736 25.452 188.464 26.172C187.192 26.892 185.728 27.252 184.072 27.252ZM184.612 23.4C185.692 23.4 186.652 23.16 187.492 22.68C188.356 22.2 189.04 21.504 189.544 20.592C190.072 19.68 190.336 18.612 190.336 17.388C190.336 16.14 190.072 15.072 189.544 14.184C189.04 13.272 188.356 12.576 187.492 12.096C186.652 11.616 185.692 11.376 184.612 11.376C183.532 11.376 182.56 11.616 181.696 12.096C180.856 12.576 180.172 13.272 179.644 14.184C179.14 15.072 178.888 16.14 178.888 17.388C178.888 18.612 179.14 19.68 179.644 20.592C180.172 21.504 180.856 22.2 181.696 22.68C182.56 23.16 183.532 23.4 184.612 23.4ZM190.444 27V22.464L190.624 17.352L190.264 12.24V0.287998H194.728V27H190.444Z" fill="#4DC591"/>
<path d="M88.8645 27V1.8H100.672C103.696 1.8 106 2.4 107.584 3.6C109.168 4.776 109.96 6.36 109.96 8.352C109.96 9.696 109.648 10.848 109.024 11.808C108.4 12.744 107.56 13.476 106.504 14.004C105.472 14.508 104.344 14.76 103.12 14.76L103.768 13.464C105.184 13.464 106.456 13.728 107.584 14.256C108.712 14.76 109.6 15.504 110.248 16.488C110.92 17.472 111.256 18.696 111.256 20.16C111.256 22.32 110.428 24 108.772 25.2C107.116 26.4 104.656 27 101.392 27H88.8645ZM93.5445 23.328H101.104C102.856 23.328 104.2 23.04 105.136 22.464C106.072 21.888 106.54 20.964 106.54 19.692C106.54 18.444 106.072 17.532 105.136 16.956C104.2 16.356 102.856 16.056 101.104 16.056H93.1845V12.42H100.168C101.8 12.42 103.048 12.132 103.912 11.556C104.8 10.98 105.244 10.116 105.244 8.964C105.244 7.788 104.8 6.912 103.912 6.336C103.048 5.76 101.8 5.472 100.168 5.472H93.5445V23.328ZM115.819 27V7.776H120.103V13.068L119.599 11.52C120.175 10.224 121.075 9.24 122.299 8.568C123.547 7.896 125.095 7.56 126.943 7.56V11.844C126.751 11.796 126.571 11.772 126.403 11.772C126.235 11.748 126.067 11.736 125.899 11.736C124.195 11.736 122.839 12.24 121.831 13.248C120.823 14.232 120.319 15.708 120.319 17.676V27H115.819ZM141.234 27V23.112L140.982 22.284V15.48C140.982 14.16 140.586 13.14 139.794 12.42C139.002 11.676 137.802 11.304 136.194 11.304C135.114 11.304 134.046 11.472 132.99 11.808C131.958 12.144 131.082 12.612 130.362 13.212L128.598 9.936C129.63 9.144 130.854 8.556 132.27 8.172C133.71 7.764 135.198 7.56 136.734 7.56C139.518 7.56 141.666 8.232 143.178 9.576C144.714 10.896 145.482 12.948 145.482 15.732V27H141.234ZM135.186 27.252C133.746 27.252 132.486 27.012 131.406 26.532C130.326 26.028 129.486 25.344 128.886 24.48C128.31 23.592 128.022 22.596 128.022 21.492C128.022 20.412 128.274 19.44 128.778 18.576C129.306 17.712 130.158 17.028 131.334 16.524C132.51 16.02 134.07 15.768 136.014 15.768H141.594V18.756H136.338C134.802 18.756 133.77 19.008 133.242 19.512C132.714 19.992 132.45 20.592 132.45 21.312C132.45 22.128 132.774 22.776 133.422 23.256C134.07 23.736 134.97 23.976 136.122 23.976C137.226 23.976 138.21 23.724 139.074 23.22C139.962 22.716 140.598 21.972 140.982 20.988L141.738 23.688C141.306 24.816 140.526 25.692 139.398 26.316C138.294 26.94 136.89 27.252 135.186 27.252ZM162.165 7.56C163.701 7.56 165.069 7.86 166.269 8.46C167.493 9.06 168.453 9.984 169.149 11.232C169.845 12.456 170.193 14.04 170.193 15.984V27H165.693V16.56C165.693 14.856 165.285 13.584 164.469 12.744C163.677 11.904 162.561 11.484 161.121 11.484C160.065 11.484 159.129 11.7 158.313 12.132C157.497 12.564 156.861 13.212 156.405 14.076C155.973 14.916 155.757 15.984 155.757 17.28V27H151.257V7.776H155.541V12.96L154.785 11.376C155.457 10.152 156.429 9.216 157.701 8.568C158.997 7.896 160.485 7.56 162.165 7.56ZM184.072 27.252C182.224 27.252 180.556 26.844 179.068 26.028C177.604 25.188 176.452 24.036 175.612 22.572C174.772 21.108 174.352 19.38 174.352 17.388C174.352 15.396 174.772 13.668 175.612 12.204C176.452 10.74 177.604 9.6 179.068 8.784C180.556 7.968 182.224 7.56 184.072 7.56C185.68 7.56 187.12 7.92 188.392 8.64C189.664 9.336 190.672 10.404 191.416 11.844C192.16 13.284 192.532 15.132 192.532 17.388C192.532 19.62 192.172 21.468 191.452 22.932C190.732 24.372 189.736 25.452 188.464 26.172C187.192 26.892 185.728 27.252 184.072 27.252ZM184.612 23.4C185.692 23.4 186.652 23.16 187.492 22.68C188.356 22.2 189.04 21.504 189.544 20.592C190.072 19.68 190.336 18.612 190.336 17.388C190.336 16.14 190.072 15.072 189.544 14.184C189.04 13.272 188.356 12.576 187.492 12.096C186.652 11.616 185.692 11.376 184.612 11.376C183.532 11.376 182.56 11.616 181.696 12.096C180.856 12.576 180.172 13.272 179.644 14.184C179.14 15.072 178.888 16.14 178.888 17.388C178.888 18.612 179.14 19.68 179.644 20.592C180.172 21.504 180.856 22.2 181.696 22.68C182.56 23.16 183.532 23.4 184.612 23.4ZM190.444 27V22.464L190.624 17.352L190.264 12.24V0.287998H194.728V27H190.444Z" fill="#FF7648"/>
</svg>
